<svg id="Layer_1" data-name="Layer 1" xmlns="http://www.w3.org/2000/svg" viewBox="0 0 50 60"><path d="M50,1a1,1,0,0,0-1-1H1A1,1,0,0,0,0,1V59a1,1,0,0,0,1,1H32a1.09,1.09,0,0,0,.39-.08,1,1,0,0,0,.32-.21l17-17a.93.93,0,0,0,.21-.33A1,1,0,0,0,50,42ZM2,2H48V41H32a1,1,0,0,0-1,1V58H2ZM46.59,43,33,56.59V43Z"/><path d="M12,14H38a1,1,0,0,0,0-2H12a1,1,0,0,0,0,2Z"/><path d="M12,24H38a1,1,0,0,0,0-2H12a1,1,0,0,0,0,2Z"/><path d="M12,34H38a1,1,0,0,0,0-2H12a1,1,0,0,0,0,2Z"/><path d="M23,42H12a1,1,0,0,0,0,2H23a1,1,0,0,0,0-2Z"/></svg>