<svg id="Layer_1" data-name="Layer 1" xmlns="http://www.w3.org/2000/svg" viewBox="0 0 32 31.13"><path d="M31,4H25.82A3,3,0,0,0,26,3a3,3,0,0,0-3-3,4.69,4.69,0,0,0-4,2.52A4.69,4.69,0,0,0,15,0a3,3,0,0,0-3,3,3,3,0,0,0,.18,1H7A1,1,0,0,0,6,5V9a1,1,0,0,0,1,1H9v6.57A8.63,8.63,0,0,0,6,16H1a1,1,0,0,0-1,1v7a1,1,0,0,0,.55.89l11.24,5.72a5.63,5.63,0,0,0,2.34.52,4.73,4.73,0,0,0,1.95-.4l14.3-5.8A1,1,0,0,0,31,23.8a3.45,3.45,0,0,0-2-2.21V10h2a1,1,0,0,0,1-1V5A1,1,0,0,0,31,4ZM23,2a1,1,0,0,1,0,2H20.46A3.09,3.09,0,0,1,23,2ZM14,3a1,1,0,0,1,1-1,3.09,3.09,0,0,1,2.54,2H15A1,1,0,0,1,14,3Zm-3,7h5v9H12.5A7.31,7.31,0,0,0,11,17.63Zm9,0V21h-.12A5.61,5.61,0,0,0,18,19.49V10ZM15.29,28.89a3.29,3.29,0,0,1-2.64-.08L2,23.39V18H6a6.56,6.56,0,0,1,5.17,2.55A1,1,0,0,0,12,21h4a3.21,3.21,0,0,1,2.44,1.41,1.13,1.13,0,0,0,.16.26,2.06,2.06,0,0,1,.17.33H11a1,1,0,0,0,0,2h9a1,1,0,0,0,1-1,4.21,4.21,0,0,0-.12-1H26a4.44,4.44,0,0,1,2.44.55ZM27,21H22V10h5ZM30,8H8V6H30Z"/></svg>