<svg xmlns="http://www.w3.org/2000/svg" width="34" height="34" viewBox="0 0 34 34">
    <path fill-rule="evenodd" clip-rule="evenodd"
        d="M16.9952 0C26.3867 0 34 7.61336 34.0001 17.0049C34.0001 26.3965 26.3868 34.0098 16.9952 34.0098C7.60359 34.0098 -0.00976562 26.3965 -0.00976562 17.0049C-0.00972864 7.61338 7.60361 3.69908e-05 16.9952 0ZM23.948 10.2369C23.3084 10.2482 22.3269 10.5896 17.6044 12.5538C15.9504 13.2418 12.6446 14.6657 7.6875 16.8254C6.88261 17.1455 6.46089 17.4589 6.4225 17.7651C6.34897 18.3528 7.19545 18.5359 8.26029 18.882C9.12853 19.1643 10.2965 19.4943 10.9036 19.5074C11.4544 19.5193 12.0692 19.2923 12.7479 18.8263C17.3795 15.6998 19.7705 14.1196 19.9206 14.0856C20.0265 14.0615 20.173 14.0313 20.2724 14.1195C20.3719 14.2079 20.3623 14.3753 20.3518 14.4202C20.2675 14.7793 15.917 18.7364 15.6662 18.9968C14.7094 19.9906 13.6208 20.5989 15.2997 21.7052C16.7524 22.6626 17.5981 23.2731 19.0947 24.2542C20.0511 24.8811 20.8013 25.6247 21.7888 25.5338C22.2431 25.4919 22.7125 25.0646 22.9508 23.7904C23.5141 20.7789 24.6213 14.2538 24.8773 11.5648C24.8997 11.3293 24.8717 11.0275 24.849 10.8952C24.8264 10.7628 24.779 10.5742 24.607 10.4346C24.4033 10.2694 24.0887 10.2345 23.948 10.2369Z" />
</svg>