<svg id="Layer_1" data-name="Layer 1" xmlns="http://www.w3.org/2000/svg" viewBox="0 0 62 60"><path d="M25.45,35.11l-16-8A1,1,0,0,0,8,28v9.06a1,1,0,0,0,.55.89l16,8a1,1,0,0,0,.45.11,1,1,0,0,0,.53-.15,1,1,0,0,0,.47-.85V36A1,1,0,0,0,25.45,35.11ZM24,43.44l-14-7V29.62l14,7Z"/><path d="M62,17a.22.22,0,0,0,0-.08.77.77,0,0,0-.07-.27s0,0,0-.06,0,0,0,0a.83.83,0,0,0-.21-.28l0,0a.57.57,0,0,0-.16-.11l-32-16a1,1,0,0,0-.9,0l-28,14a.57.57,0,0,0-.16.11l0,0a.83.83,0,0,0-.21.28s0,0,0,0l0,.06a.77.77,0,0,0-.07.27A.22.22,0,0,0,0,15a.08.08,0,0,0,0,0V43a1,1,0,0,0,.55.89l32,16h0a.93.93,0,0,0,.84,0h0l28-14A1,1,0,0,0,62,45V17A.08.08,0,0,0,62,17ZM29,2.12,58.76,17,47.28,22.74,18.14,7.55Zm4,27.76L3.24,15,15.93,8.65,45.08,23.84ZM2,16.62l30,15V57.38l-30-15ZM34,57.38V31.62l26-13V44.38Z"/></svg>