<svg id="Layer_1" data-name="Layer 1" xmlns="http://www.w3.org/2000/svg" viewBox="0 0 62 60.26"><path d="M61,8H49a4.92,4.92,0,0,0,1-3,5,5,0,0,0-5-5c-4.36,0-6.8,3.55-8,6.13C35.8,3.55,33.36,0,29,0a5,5,0,0,0-5,5,4.92,4.92,0,0,0,1,3H13a1,1,0,0,0-1,1v8a1,1,0,0,0,1,1h5V33.63A16.62,16.62,0,0,0,11,32H1a1,1,0,0,0-1,1V47a1,1,0,0,0,.55.89L23,59.31a10.25,10.25,0,0,0,4.27.95,8.54,8.54,0,0,0,3.52-.73l28.6-11.6A1,1,0,0,0,60,46.8c0-.14-.59-2.64-4-4V18h5a1,1,0,0,0,1-1V9A1,1,0,0,0,61,8ZM45,2a3,3,0,0,1,0,6H38.38C39.18,5.93,41.2,2,45,2ZM26,5a3,3,0,0,1,3-3c3.8,0,5.82,3.93,6.62,6H29A3,3,0,0,1,26,5ZM20,18H32V38.07A8.4,8.4,0,0,0,31,38H23.52A13.7,13.7,0,0,0,20,34.76Zm20,0V42H38.24A10.23,10.23,0,0,0,34,38.63V18ZM57.67,46.46,30,57.69a7.62,7.62,0,0,1-6.14-.18L2,46.39V34h9c4.4,0,9,2.28,11.17,5.55A1,1,0,0,0,23,40h8a7.42,7.42,0,0,1,5.76,3.35,1.12,1.12,0,0,0,.24.37A6.77,6.77,0,0,1,37.91,46H21a1,1,0,0,0,0,2H39a1,1,0,0,0,1-1,7.83,7.83,0,0,0-.63-3H51C55.34,44,57,45.52,57.67,46.46ZM54,42H42V18H54Zm6-26H14V10H60Z"/></svg>