<svg xmlns="http://www.w3.org/2000/svg" width="29" height="24" viewBox="0 0 29 24">
    <path fill-rule="evenodd" clip-rule="evenodd"
        d="M9.16253 -0.00671387C9.20838 0.0191101 9.25569 0.0426056 9.30008 0.0710409C10.9792 1.14607 12.6581 2.22168 14.3369 3.297C14.3584 3.31064 14.3796 3.32486 14.4016 3.33792C14.4651 3.37534 14.5293 3.37535 14.5928 3.33909C14.6189 3.32401 14.6439 3.30715 14.6694 3.2909C16.3401 2.22023 18.0109 1.14925 19.6822 0.0788642C19.7324 0.0466573 19.7872 0.0217211 19.84 -0.00671387H19.8957C19.9279 0.00459952 19.9599 0.01736 19.9923 0.0272235C21.8221 0.586065 23.6515 1.14521 25.4818 1.70202C25.5683 1.72842 25.6246 1.77486 25.6678 1.85349C26.7495 3.82974 27.833 5.80514 28.9153 7.7814C28.948 7.84146 28.9721 7.90645 29 7.96912V7.99696C28.9904 8.03729 28.9811 8.07765 28.9712 8.11769C28.7841 8.88544 28.597 9.65291 28.4095 10.4207C28.1002 11.6881 27.7909 12.9552 27.4816 14.2226C27.3623 14.7109 27.2419 15.1992 27.1238 15.6879C27.1082 15.7531 27.076 15.8022 27.0179 15.835C27.0037 15.8431 26.9906 15.8527 26.977 15.8614C23.2453 18.2804 19.5133 20.6997 15.7813 23.1188C15.396 23.3686 15.0101 23.6173 14.6259 23.8685C14.5368 23.9268 14.4544 23.9303 14.3691 23.8671C14.3654 23.8645 14.3613 23.8622 14.3572 23.8596C11.355 21.9135 8.35271 19.9674 5.35046 18.0216C4.23161 17.2965 3.11276 16.5711 1.99334 15.8469C1.92981 15.8057 1.886 15.7569 1.86772 15.6812C1.65591 14.8075 1.44206 13.9342 1.22908 13.0608C0.822864 11.3953 0.416632 9.72949 0.00954172 8.06399C-0.00873649 7.98971 -0.00118947 7.92529 0.0359497 7.85739C1.13738 5.85154 2.23795 3.8454 3.33735 1.83839C3.37449 1.7705 3.42441 1.72928 3.49811 1.70694C5.17347 1.19656 6.84827 0.685316 8.52334 0.173771C8.71803 0.114582 8.91242 0.053636 9.10682 -0.00671387H9.16253Z" />
</svg>