<svg xmlns="http://www.w3.org/2000/svg" width="28" height="28" viewBox="0 0 28 28">
    <path
        d="M14 14.75C16.4533 14.75 18.8063 15.7243 20.541 17.459C22.2757 19.1937 23.25 21.5467 23.25 24V25.25H4.75V24C4.75 21.5467 5.72427 19.1937 7.45898 17.459C9.1937 15.7243 11.5467 14.75 14 14.75ZM14 17.25C12.2098 17.25 10.4924 17.9607 9.22656 19.2266C8.25944 20.1937 7.61796 21.4248 7.36816 22.75H20.6318C20.382 21.4248 19.7406 20.1937 18.7734 19.2266C17.5076 17.9607 15.7902 17.25 14 17.25Z" />
    <path
        d="M16.75 8C16.75 6.48122 15.5188 5.25 14 5.25C12.4812 5.25 11.25 6.48122 11.25 8C11.25 9.51878 12.4812 10.75 14 10.75C15.5188 10.75 16.75 9.51878 16.75 8ZM19.25 8C19.25 10.8995 16.8995 13.25 14 13.25C11.1005 13.25 8.75 10.8995 8.75 8C8.75 5.10051 11.1005 2.75 14 2.75C16.8995 2.75 19.25 5.10051 19.25 8Z" />
</svg>