<svg xmlns="http://www.w3.org/2000/svg" width="32" height="32" viewBox="0 0 32 32">
    <path fill-rule="evenodd" clip-rule="evenodd"
        d="M2.23292 2.28712C0 4.52005 0 8.11389 0 15.3016V16.5722C0 23.7598 0 27.3537 2.23292 29.5866C4.46586 31.8195 8.05969 31.8195 15.2474 31.8195H16.518C23.7056 31.8195 27.2995 31.8195 29.5324 29.5866C31.7653 27.3537 31.7653 23.7598 31.7653 16.5722V15.3016C31.7653 8.11389 31.7653 4.52005 29.5324 2.28712C27.2995 0.0541992 23.7056 0.0541992 16.518 0.0541992H15.2474C8.05969 0.0541992 4.46586 0.0541992 2.23292 2.28712ZM5.36046 9.71623C5.5325 17.9752 9.66196 22.9385 16.9018 22.9385H17.3122V18.2134C19.9725 18.4781 21.9842 20.4238 22.7916 22.9385H26.5506C25.5182 19.1796 22.8048 17.1016 21.1106 16.3075C22.8048 15.3281 25.1872 12.9457 25.7563 9.71623H22.3414C21.6003 12.3369 19.4034 14.7192 17.3122 14.9442V9.71623H13.8973V18.8752C11.7796 18.3458 9.1061 15.7781 8.98698 9.71623H5.36046Z" />
</svg>