<svg width="144" height="119" viewBox="0 0 144 119" fill="none" xmlns="http://www.w3.org/2000/svg">
    <path
        d="M65.2889 67.0784C65.7542 66.2672 66.7627 65.8249 67.6488 66.0396C68.8734 66.3364 69.2984 67.3261 69.3302 68.0623C69.3489 68.4845 69.2235 68.8808 69.0232 69.251C68.1818 70.8042 67.1171 72.1788 65.7729 73.3328C65.5813 73.4971 65.3897 73.6642 65.201 73.8327C64.7875 74.2001 64.3104 74.3946 63.7514 74.3817V74.3831C62.9677 74.3673 62.3409 74.0402 61.9375 73.3717C61.1047 71.9929 60.2878 70.6054 59.4882 69.2064C58.873 68.1287 59.2578 66.8348 60.3484 66.2369C61.2446 65.7456 62.5903 65.959 63.2285 67.0669C63.4518 67.4559 63.6838 67.8405 63.9128 68.2266C63.9532 68.2958 63.9934 68.3665 64.0367 68.4342C64.2009 68.6863 64.2774 68.6848 64.4603 68.4327C64.4934 68.3866 64.5265 68.3376 64.5553 68.2886C64.8003 67.8867 65.054 67.4876 65.2889 67.0784Z"
        fill="#1743B3" />
    <path
        d="M88.9737 77.9302C88.9737 77.9289 88.9737 77.9275 88.9737 77.9262C88.9741 77.9261 88.9746 77.9261 88.9751 77.926L88.9737 77.9302Z"
        fill="#1743B3" />
    <path
        d="M100.938 70.8747C101.872 70.3489 103.25 70.5448 103.946 71.7046C104.082 71.9308 104.2 72.1685 104.331 72.3991C104.462 72.6281 104.592 72.8602 104.737 73.0806C104.975 73.4408 105.053 73.4408 105.289 73.0706C105.574 72.6254 105.852 72.1744 106.117 71.7162C106.602 70.8835 107.646 70.4339 108.577 70.663C109.75 70.9512 110.287 71.9208 110.313 72.8054C110.326 73.2491 110.183 73.667 109.969 74.056C109.084 75.6509 107.988 77.0744 106.594 78.2616C106.384 78.4402 106.178 78.6246 105.97 78.8076C105.556 79.1736 105.069 79.3495 104.34 79.3524L104.341 79.3495C103.697 79.3321 103.036 78.9877 102.613 78.2904C101.737 76.8439 100.88 75.3843 100.047 73.9133C99.4323 72.8256 99.8329 71.4957 100.938 70.8747Z"
        fill="#1743B3" />
    <path
        d="M109.379 35.6435C110.315 35.3741 111.3 35.7486 111.807 36.5756C112.09 37.0366 112.358 37.5063 112.637 37.9688C112.813 38.2598 112.911 38.2642 113.098 37.9731C113.378 37.5381 113.653 37.1001 113.912 36.652C114.406 35.7976 115.437 35.3668 116.367 35.6435C117.37 35.9403 117.988 36.7904 117.943 37.8061C117.926 38.1951 117.799 38.5495 117.613 38.8852C116.773 40.411 115.723 41.7697 114.396 42.905C114.205 43.0692 114.014 43.2378 113.824 43.4034C112.775 44.3198 111.241 44.0893 110.523 42.8906C109.714 41.5392 108.924 40.1747 108.127 38.8161C107.924 38.4703 107.826 38.0971 107.832 37.7917L107.831 37.7902C107.835 36.737 108.462 35.9071 109.379 35.6435Z"
        fill="#1743B3" />
    <path fill-rule="evenodd" clip-rule="evenodd"
        d="M45.4967 0C45.7244 0.128229 45.9593 0.244897 46.1797 0.386093C54.5175 5.72417 62.8539 11.0651 71.1902 16.4047C71.2968 16.4724 71.4019 16.543 71.5114 16.6078C71.8269 16.7937 72.1453 16.7937 72.4608 16.6137C72.5905 16.5387 72.7145 16.4551 72.8413 16.3744C81.1373 11.0579 89.4333 5.73997 97.7321 0.424939C97.9814 0.265016 98.2538 0.141195 98.516 0H98.7927C98.9526 0.0561768 99.111 0.119539 99.2723 0.168517C108.358 2.94345 117.442 5.71989 126.53 8.48474C126.96 8.61585 127.239 8.84641 127.454 9.23686C132.825 19.05 138.205 28.8589 143.579 38.672C143.742 38.9702 143.862 39.293 144 39.6041V39.7424C143.952 39.9427 143.906 40.143 143.857 40.3419C142.928 44.1541 141.999 47.965 141.068 51.7773C139.532 58.0706 137.996 64.3624 136.46 70.6557C135.868 73.0805 135.27 75.5054 134.684 77.9317C134.606 78.2558 134.446 78.4995 134.158 78.6623C134.087 78.7026 134.023 78.75 133.955 78.7932C115.425 90.805 96.8937 102.818 78.3624 114.83C76.4491 116.071 74.5328 117.305 72.6252 118.553C72.1829 118.842 71.7737 118.86 71.3502 118.546C71.3315 118.533 71.3112 118.521 71.2911 118.508C56.3833 108.845 41.4755 99.1818 26.5678 89.5199C21.0121 85.9194 15.4565 82.3173 9.89794 78.7212C9.58249 78.5166 9.36499 78.2746 9.27421 77.8986C8.22245 73.5605 7.16056 69.2237 6.10304 64.8869C4.08595 56.6169 2.06879 48.3453 0.0473796 40.0752C-0.0433812 39.7064 -0.00590634 39.3865 0.178509 39.0494C5.6477 29.0893 11.1126 19.1278 16.5717 9.16191C16.7561 8.82477 17.004 8.62012 17.3699 8.50918C25.689 5.97486 34.0052 3.43629 42.3228 0.896202C43.2895 0.602297 44.2548 0.299668 45.2201 0H45.4967ZM39.3287 59.5387C38.9513 59.5358 38.5738 59.6036 38.1978 59.6425C37.9702 59.6655 37.8592 59.7937 37.8376 60.0242C37.7944 60.4824 37.7295 60.9392 37.6891 61.3973C37.5869 62.5442 37.4874 63.691 37.3981 64.8393C37.2612 66.5956 37.1216 68.3505 37.0078 70.1082C36.93 71.3026 36.8996 72.5014 36.8405 73.6972C36.7555 75.4218 36.6649 77.1465 36.5756 78.8725C36.5194 79.9531 36.4544 81.0337 36.4083 82.1158C36.3651 83.1502 36.3349 84.1875 36.3104 85.222C36.3017 85.5606 36.3349 85.5751 36.6706 85.6486C37.2685 85.7797 37.8736 85.8343 38.4845 85.8674C40.7379 85.9899 42.9913 86.1297 45.2447 86.2623L45.2403 86.2579V86.2335C46.8842 86.3242 48.5297 86.4149 50.1736 86.5014C50.3565 86.5115 50.5409 86.4929 50.7253 86.4842C50.963 86.4742 51.1086 86.3502 51.1634 86.1182C51.185 86.0289 51.2182 85.9424 51.2383 85.853C51.4602 84.8647 51.4702 83.8677 51.3592 82.865C51.3348 82.6517 51.2209 82.5365 51.0149 82.4918C50.6547 82.414 50.2989 82.3203 49.9372 82.2525C48.7457 82.0307 47.5339 81.9962 46.3295 81.917C44.687 81.8075 43.0431 81.7108 41.3993 81.6071C41.2494 81.597 41.0967 81.5956 40.9541 81.5568C40.8864 81.538 40.8171 81.4515 40.7897 81.3795C40.7624 81.3103 40.784 81.2209 40.7897 81.1402C40.8301 80.3925 40.8747 79.6462 40.9136 78.8984C41.0562 76.1855 41.1961 73.471 41.3387 70.758C41.4151 69.2971 41.4814 67.8361 41.5736 66.3781C41.7033 64.3423 41.7176 62.3051 41.6974 60.2664C41.6931 59.8817 41.6874 59.8801 41.3113 59.7793C40.6616 59.6049 39.9958 59.5445 39.3287 59.5387ZM66.8318 59.6698C65.0683 59.5459 63.3422 59.8384 61.6853 60.4767C59.6423 61.2619 58.0085 62.5514 56.8659 64.433C55.8531 66.1 55.2364 67.9168 54.9756 69.8374C54.7782 71.2954 54.6832 72.768 54.5665 74.2361C54.4743 75.4075 54.5045 76.5817 54.5348 77.7573C54.5823 79.6101 54.5895 81.4644 54.6428 83.3173C54.6644 84.0866 54.7596 84.8531 54.8259 85.621C54.8504 85.9135 55.0217 86.0793 55.3084 86.1211C55.6038 86.1643 55.9006 86.209 56.1988 86.2335C56.9754 86.2954 57.7391 86.209 58.4926 86.0203C58.713 85.9655 58.8398 85.8661 58.8571 85.6024C58.9277 84.5579 59.0501 83.5161 59.1106 82.4716C59.174 81.3809 59.1855 80.286 59.223 79.1924C59.236 78.8236 59.262 78.8077 59.6279 78.8149C60.3526 78.8308 61.0788 78.8539 61.8034 78.8481C64.2095 78.8337 66.6171 78.8092 69.0232 78.7876H69.4799C69.5058 78.9964 69.5304 79.1549 69.5434 79.3133C69.5635 79.5655 69.5765 79.8192 69.5895 80.0713C69.6457 81.0942 69.7004 82.1172 69.7566 83.1402C69.8012 83.9326 69.8473 84.7251 69.8977 85.5175C69.9136 85.7724 70.042 85.9467 70.2984 86.0144C70.4871 86.0649 70.67 86.1469 70.8616 86.1715C71.703 86.2795 72.5388 86.2363 73.3673 86.0562C73.5833 86.0087 73.7404 85.9266 73.7663 85.6601C73.9089 84.2395 74.0501 82.8188 74.0486 81.3895C74.0443 78.1651 74.0184 74.9407 74.0198 71.7162C74.0198 70.238 73.9059 68.7727 73.6279 67.3219C73.3585 65.9157 72.984 64.5411 72.3126 63.266C71.1513 61.0587 69.3041 59.8442 66.8318 59.6698ZM91.9519 59.8643C90.8699 59.8801 89.7878 59.886 88.7057 59.9192C88.1755 59.935 88.1597 59.8499 88.1756 60.4896C88.2087 61.7906 88.2389 63.0917 88.2865 64.3912C88.3787 66.9111 88.4766 69.4311 88.5846 71.951C88.6221 72.814 88.6885 73.6756 88.749 74.5358C88.821 75.5573 88.9002 76.5802 88.9737 77.6017C88.9808 77.7099 88.9738 77.818 88.9737 77.9262C88.9454 77.9332 88.9185 77.939 88.8901 77.9461C88.8383 77.8337 88.7836 77.7214 88.736 77.6076C87.2016 73.9206 85.6584 70.238 84.1356 66.5467C83.4238 64.8236 82.7525 63.0845 82.0552 61.3556C81.9313 61.0473 81.7814 60.7462 81.6215 60.4537C81.4543 60.1511 81.1906 59.9853 80.8332 59.981C79.7282 59.9709 78.6217 59.9552 77.5167 59.9465C77.2214 59.9436 77.1795 59.9739 77.1507 60.2794C77.1175 60.6453 77.0973 61.0141 77.1045 61.3815C77.1334 62.7862 77.1824 64.1896 77.2112 65.5944C77.23 66.5035 77.2313 67.414 77.2298 68.3246C77.227 70.467 77.2299 72.6095 77.2083 74.7519C77.1766 77.6306 77.1162 80.5093 77.0845 83.388C77.0773 84.0435 77.1248 84.6991 77.168 85.3546C77.1939 85.7479 77.2299 85.7869 77.6074 85.8503C78.0151 85.9194 78.4287 85.9915 78.8393 85.9944C79.4703 85.9987 80.1028 85.9524 80.7324 85.9107C81.0047 85.8919 81.0754 85.8185 81.1128 85.5519C81.1416 85.3488 81.143 85.1384 81.1358 84.9324C81.0825 83.1602 81.0178 81.3881 80.9702 79.6159C80.9255 77.9345 80.9081 76.2531 80.8606 74.5732C80.8102 72.778 80.7396 70.9828 80.6791 69.1876C80.6763 69.1084 80.6922 69.0292 80.6979 68.9499C80.8232 69.0926 80.8909 69.2381 80.9529 69.3851C82.0363 71.9756 83.1515 74.5546 84.1932 77.1609C85.3357 80.0165 86.631 82.8016 87.9565 85.5736C88.0963 85.8661 88.285 86.0317 88.5961 86.0735C88.6638 86.0822 88.7302 86.1081 88.7993 86.1153C89.9015 86.2378 91.0067 86.2392 92.1089 86.1326C92.289 86.1153 92.472 86.0635 92.6391 85.9915C92.9157 85.8733 92.9805 85.7162 92.9343 85.4108C92.9012 85.1947 92.8565 84.9785 92.8464 84.761C92.7773 83.3576 92.6865 81.9557 92.6577 80.5524C92.5914 77.364 92.5656 74.1727 92.5094 70.9844C92.4791 69.2684 92.4215 67.5538 92.3768 65.8393C92.3552 65.0339 92.3105 64.2269 92.3148 63.4215C92.3206 62.5816 92.3754 61.7416 92.4042 60.9016C92.4128 60.6481 92.4099 60.3945 92.4142 60.1424C92.4171 59.9882 92.3322 59.9075 92.1924 59.8816C92.1147 59.8657 92.0325 59.8628 91.9519 59.8643ZM99.065 59.863C98.2855 59.7794 97.503 59.7476 96.7221 59.8571C96.1992 59.9292 96.1401 59.9739 96.1214 60.4969C96.045 62.5212 95.9442 64.5455 95.9182 66.5712C95.8923 68.5623 95.9486 70.5549 95.9687 72.5461L95.9658 72.5475H95.9859C96.0277 74.8268 96.0724 77.1061 96.1099 79.3854C96.1373 81.0437 96.1488 82.7007 96.1834 84.359C96.192 84.7826 96.2611 85.2062 96.3058 85.6298C96.3245 85.8099 96.4196 85.9208 96.6098 85.9439C96.8374 85.9712 97.0637 86.026 97.2928 86.0433C99.4035 86.2032 101.504 86.1312 103.585 85.7062C105.584 85.2985 107.483 84.6269 109.234 83.5622C110.685 82.679 111.892 81.548 112.767 80.0813C114.101 77.8424 114.556 75.4203 114.226 72.8442C113.902 70.3215 112.918 68.0853 111.255 66.159C109.885 64.5713 108.319 63.2026 106.528 62.1018C105.386 61.4002 104.183 60.8282 102.874 60.504C101.621 60.1943 100.347 59.9999 99.065 59.863ZM40.7119 28.8171C40.0045 28.6903 39.2898 28.6499 38.5795 28.7233C38.1732 28.7651 37.7756 28.9035 37.3751 29.0029C37.2109 29.0433 37.136 29.1498 37.1216 29.3255C37.0812 29.8183 37.0193 30.3097 36.9746 30.8024C36.8363 32.3066 36.793 33.8136 36.8247 35.3221C36.8535 36.7153 36.9184 38.1071 36.9155 39.5004C36.9112 41.7811 36.7729 44.0575 36.5006 46.3224C36.4257 46.9491 36.3219 47.5788 36.1519 48.1854C35.8147 49.3826 35.1029 50.2962 33.9575 50.8422C32.7387 51.4228 31.4564 51.6044 30.1223 51.4776C28.9265 51.3638 28.0303 50.7614 27.3704 49.7803C27.0074 49.2414 26.7451 48.6537 26.5621 48.0327C26.2135 46.8556 26.0579 45.6452 26.0161 44.4235C25.9729 43.1931 25.9469 41.9598 25.9541 40.728C25.9728 37.479 25.8129 34.2358 25.7077 30.9897C25.689 30.4163 25.5981 29.8457 25.5419 29.2737C25.5189 29.0317 25.3735 28.8976 25.1516 28.8501C24.8937 28.7953 24.6314 28.7478 24.3692 28.7204C23.5466 28.6354 22.7383 28.7277 21.9387 28.928C21.7255 28.9813 21.613 29.0864 21.5885 29.3255C21.4185 30.9752 21.2859 32.6279 21.3004 34.2891C21.3148 35.8654 21.3334 37.4416 21.3492 39.0178H21.368C21.4256 40.617 21.4704 42.2177 21.5453 43.8154C21.6072 45.1366 21.6735 46.4607 21.7917 47.7776C21.9084 49.0872 22.2009 50.3667 22.6303 51.613C23.2296 53.3563 24.3087 54.6934 25.9541 55.5492C27.0577 56.1241 28.2478 56.3705 29.4825 56.3907C31.5443 56.4238 33.5081 55.9771 35.3609 55.0838C37.7454 53.9341 39.4527 52.1461 40.3892 49.6479C40.9828 48.063 41.2969 46.4146 41.4828 44.7419C41.6571 43.1614 41.696 41.5723 41.7089 39.9831C41.7349 36.9993 41.6066 34.0196 41.4769 31.0386C41.451 30.4537 41.3575 29.8716 41.2999 29.2882C41.2768 29.0447 41.1354 28.9207 40.9121 28.866C40.8459 28.8501 40.7796 28.8286 40.7119 28.8171ZM83.065 28.2032C81.9744 28.0101 80.888 28.0635 79.8003 28.2393C79.6058 28.271 79.4977 28.3603 79.4156 28.5317C78.8264 29.7693 78.2745 31.0228 77.9157 32.3512C77.0109 35.7053 76.1076 39.0609 75.2244 42.4208C74.7331 44.2895 74.2575 46.164 73.8166 48.0457C73.3513 50.031 73.0474 52.0453 72.8154 54.071C72.7736 54.4341 72.7505 54.8001 72.7216 55.1228C72.7735 55.1804 72.7852 55.2048 72.8039 55.2135C73.7663 55.6514 74.7748 55.7235 75.8108 55.6025C76.0225 55.578 76.1378 55.4699 76.1954 55.2696C76.374 54.6386 76.5758 54.0147 76.7443 53.3807C77.7154 49.7342 78.6606 46.0804 79.6533 42.4396C80.1806 40.5089 80.7843 38.5985 81.3563 36.6808C81.3909 36.567 81.4427 36.4575 81.486 36.3465C81.5105 36.3494 81.5364 36.3508 81.5609 36.3536C81.5912 36.4444 81.6272 36.5352 81.6488 36.6274C81.7799 37.1634 81.9024 37.7024 82.0393 38.2383C83.2841 43.134 84.6774 47.9908 86.1138 52.8333C86.3357 53.5839 86.5805 54.326 86.8125 55.0738C86.8716 55.2654 86.9595 55.4066 87.19 55.4051C87.8009 55.4008 88.4118 55.4023 89.0213 55.4051C89.2143 55.4051 89.318 55.3115 89.3641 55.1314C89.416 54.9311 89.4766 54.7323 89.5299 54.5321C90.55 50.6838 91.6103 46.8469 92.9199 43.0835C93.5063 41.3993 94.0654 39.705 94.6388 38.0164C94.6763 37.9055 94.7238 37.7989 94.7656 37.6908C94.9284 38.4602 95.025 39.2093 95.1187 39.9585C95.4414 42.5404 95.7814 45.1195 96.0826 47.7028C96.3621 50.1045 96.6012 52.5092 96.8606 54.9138C96.8721 55.0161 96.8937 55.1184 96.9182 55.2178C96.9931 55.5261 97.1818 55.7221 97.4987 55.7841C97.6111 55.8057 97.7236 55.8402 97.8374 55.8474C98.6413 55.9007 99.4452 55.9728 100.249 55.9929C100.97 56.0117 101.192 55.7955 101.209 55.0838C101.225 54.4398 101.212 53.7928 101.17 53.1502C101.115 52.2887 101.023 51.43 100.944 50.5699C100.82 49.2286 100.693 47.8872 100.563 46.5473C100.439 45.2635 100.305 43.9812 100.186 42.6974C100.055 41.2869 99.9351 39.8764 99.8083 38.4659C99.6585 36.8148 99.513 35.1637 99.3531 33.514C99.2249 32.1972 99.0664 30.8817 98.9482 29.5634C98.9122 29.16 98.7047 28.9626 98.3575 28.8588C98.1933 28.8099 98.0218 28.7681 97.8518 28.7594C97.019 28.7177 96.1963 28.8011 95.3822 28.9783C94.9817 29.0647 94.6864 29.278 94.4645 29.6425C93.7311 30.8556 93.0425 32.0919 92.4259 33.367C91.3266 35.6405 90.4664 38.0091 89.6725 40.4022C89.1798 41.8877 88.7144 43.3818 88.2332 44.8701C88.1885 45.007 88.1308 45.141 88.0789 45.2764L88.0747 45.2779C88.0589 45.2736 88.0415 45.2693 88.0257 45.265C87.9968 45.131 87.9651 44.997 87.9392 44.863C87.4551 42.3661 86.909 39.8837 86.2909 37.4156C85.6598 34.9015 84.8054 32.4564 84.0721 29.9739C83.9266 29.4797 83.7004 29.0086 83.5116 28.5275C83.431 28.3229 83.2739 28.2392 83.065 28.2032ZM52.6992 28.2003C51.6071 28.0087 50.5208 28.0606 49.4344 28.2364C49.2428 28.2681 49.129 28.3488 49.0469 28.5245C48.472 29.7434 47.9215 30.9738 47.5685 32.2777C46.6839 35.5425 45.7965 38.8074 44.945 42.0808C44.3514 44.363 43.7778 46.6524 43.2606 48.9534C42.824 50.8969 42.5446 52.8708 42.3761 54.8576C42.3473 55.1919 42.3501 55.1934 42.6498 55.3087C43.5186 55.6429 44.419 55.6991 45.3353 55.6227C45.6206 55.5982 45.7835 55.4628 45.8613 55.1746C46.1206 54.2079 46.4074 53.2483 46.6681 52.283C47.7559 48.2388 48.8279 44.1901 49.9287 40.1487C50.2543 38.95 50.6534 37.7714 51.0207 36.5842C51.0481 36.4948 51.0468 36.3738 51.211 36.3536C51.3248 36.8277 51.4342 37.296 51.5509 37.7614C52.9125 43.1513 54.444 48.4937 56.0432 53.8159C56.1729 54.2452 56.3185 54.6703 56.451 55.0997C56.513 55.2999 56.6268 55.4065 56.8501 55.4037C57.4494 55.3965 58.0488 55.3993 58.6467 55.4022C58.8354 55.4022 58.9523 55.3245 58.9897 55.1343C59.0056 55.0551 59.0343 54.9801 59.0559 54.9023C59.687 52.6302 60.2978 50.3509 60.9519 48.0845C61.9432 44.6569 63.1665 41.3043 64.2989 37.9214C64.3234 37.8464 64.3565 37.7743 64.3854 37.7009V37.7023C64.4084 37.7038 64.43 37.7065 64.453 37.708C64.4703 37.8074 64.4906 37.9069 64.5035 38.0063C64.5381 38.2801 64.5684 38.5553 64.6029 38.829C64.7773 40.2338 64.9517 41.6385 65.126 43.0432C65.296 44.4134 65.4746 45.7837 65.6374 47.1553C65.842 48.8813 66.0394 50.6088 66.231 52.3363C66.3304 53.2281 66.4083 54.1228 66.5077 55.0161C66.5624 55.506 66.7468 55.7294 67.2323 55.7985C67.8345 55.885 68.444 55.9267 69.052 55.967C69.4194 55.9915 69.7897 56.0015 70.1556 55.9756C70.5792 55.9454 70.7551 55.7754 70.7998 55.3519C70.843 54.9413 70.8746 54.5234 70.8501 54.1128C70.7838 53.0337 70.6902 51.9544 70.5951 50.8767C70.4539 49.2948 70.3027 47.7128 70.1529 46.1309C69.98 44.3083 69.7998 42.4871 69.6298 40.6645C69.4987 39.254 69.382 37.8435 69.2537 36.433C69.101 34.7588 68.9482 33.0845 68.7883 31.4118C68.7278 30.7822 68.6342 30.1541 68.5766 29.5245C68.5449 29.1787 68.3691 28.9726 68.0493 28.8833C67.8404 28.8256 67.6228 28.7551 67.4095 28.7594C66.8232 28.7724 66.2368 28.8083 65.6532 28.8645C65.3579 28.8933 65.0654 28.974 64.7787 29.0533C64.5281 29.1224 64.3264 29.2665 64.1909 29.5028C64.0483 29.7521 63.8854 29.9912 63.7385 30.2376C62.413 32.4593 61.3295 34.7934 60.4232 37.2154C59.5357 39.5883 58.7751 42.0016 58.0115 44.4149C57.9221 44.6973 57.8212 44.9768 57.7145 45.2923C57.6728 45.2232 57.6468 45.1987 57.641 45.1685C57.6007 44.9898 57.5604 44.8096 57.5258 44.6281C57.0345 42.0851 56.5158 39.5479 55.8156 37.054C55.1284 34.6061 54.3733 32.1783 53.6342 29.7448C53.5074 29.3285 53.3115 28.9337 53.1458 28.5289C53.0637 28.3287 52.9124 28.2377 52.6992 28.2003ZM115.316 29.2364C113.715 29.1514 112.147 29.3963 110.63 29.9279C108.251 30.7636 106.42 32.2503 105.21 34.4821C104.417 35.9445 103.9 37.502 103.635 39.1358C103.322 41.0693 103.184 43.0246 103.148 44.9812C103.121 46.4767 103.183 47.9736 103.21 49.4706C103.236 50.9099 103.258 52.3478 103.299 53.7871C103.312 54.2337 103.371 54.6818 103.433 55.1255C103.492 55.539 103.589 55.6385 103.997 55.7033C104.337 55.7581 104.683 55.7927 105.025 55.8086C105.718 55.8417 106.406 55.7769 107.077 55.5954C107.429 55.5003 107.455 55.48 107.481 55.1358C107.586 53.7238 107.694 52.3133 107.779 50.8999C107.822 50.1881 107.819 49.4734 107.841 48.7602C107.851 48.4029 107.878 48.3856 108.214 48.3856C110.299 48.3856 112.382 48.387 114.467 48.3827C115.572 48.3798 116.677 48.3626 117.783 48.3568C118.096 48.3554 118.125 48.3843 118.142 48.6811C118.223 50.1521 118.301 51.6231 118.38 53.0941C118.412 53.6804 118.438 54.2669 118.487 54.8518C118.536 55.4454 118.603 55.5103 119.181 55.676C119.236 55.6918 119.292 55.7033 119.35 55.7148C119.989 55.8474 120.633 55.8042 121.276 55.7451C121.538 55.7206 121.799 55.666 122.057 55.6098C122.254 55.568 122.362 55.4555 122.38 55.2279C122.456 54.1948 122.599 53.1647 122.627 52.1316C122.682 50.165 122.675 48.1955 122.694 46.2274H122.636C122.636 44.569 122.623 42.9106 122.64 41.2523C122.656 39.6214 122.491 38.012 122.153 36.4186C121.885 35.1536 121.521 33.9174 120.901 32.7748C119.7 30.5604 117.825 29.3704 115.316 29.2364Z"
        fill="#1743B3" />
</svg>